<svg width="115" height="64" viewBox="0 0 115 64" fill="none" xmlns="http://www.w3.org/2000/svg">
<path d="M112.462 10.022C111.802 8.08494 110.516 6.31895 108.73 4.89992C106.944 3.48089 104.722 2.45834 102.284 1.93408C93.3601 0 57.4427 0 57.4427 0C57.4427 0 21.5234 0.0585435 12.5991 1.99263C10.1614 2.51691 7.93901 3.53952 6.15334 4.95861C4.36766 6.37771 3.08098 8.14377 2.42142 10.0809C-0.277985 22.6814 -1.32513 41.8816 2.49554 53.978C3.15517 55.9151 4.44188 57.6811 6.22755 59.1001C8.01322 60.5191 10.2355 61.5417 12.6732 62.0659C21.5975 64 57.5159 64 57.5159 64C57.5159 64 93.4338 64 102.358 62.0659C104.795 61.5417 107.018 60.5192 108.804 59.1002C110.589 57.6811 111.876 55.9151 112.536 53.978C115.383 41.3597 116.26 22.1713 112.462 10.022Z" fill="#FF0000"/>
</svg>
