<svg width="65" height="64" viewBox="0 0 65 64" fill="none" xmlns="http://www.w3.org/2000/svg">
<path d="M0 0V64H65V0H0ZM28.854 17.1133C30.6945 17.0945 32.4946 17.2954 33.3728 17.3203C36.6282 17.4126 37.2031 19.0338 37.1615 20.3672C37.1006 22.3201 35.8245 30.5811 38.1891 31.3867C41.6346 29.5726 43.9451 23.9382 45.6277 20.3672C46.4788 18.5609 46.3442 18.4711 48.3056 18.4687L56.0973 18.457C57.9737 18.4547 57.9005 18.3899 58.5016 19.1445C59.8996 20.8996 54.0899 28.2002 52.2134 30.2188C48.7505 33.9439 50.7709 35.3865 51.3287 35.8985C53.913 38.2709 56.41 40.731 57.962 43C59.1958 44.8038 58.6862 46.4833 57.1169 46.5469L48.7618 46.8867C45.9892 46.9989 41.6781 42.1053 40.99 41.039C40.4335 40.1596 37.7514 39.0573 37.4988 41.3046L37.1456 44.4413C36.8892 46.6835 35.2078 46.6311 33.8806 46.6873C24.6902 47.0767 21.5604 43.6315 16.9323 38.5467C13.5403 33.8235 10.3034 29.0731 7.62109 23.3826C6.81823 21.6793 6.39297 20.4297 6.28409 19.1053C7.63371 18.0667 12.371 18.514 15.5517 18.4451C16.4217 18.4262 17.0087 18.9171 17.4679 19.8943C19.2598 23.7084 21.214 27.4538 23.7997 30.7654C24.9258 31.7867 25.9212 32.1622 26.4181 30.0858C26.7066 30.0597 26.6834 26.6211 26.6998 24.0271C26.711 22.2461 26.4985 20.1103 23.4347 19.1248C24.0544 17.5254 26.4878 17.1374 28.854 17.1133Z" fill="#9747FF"/>
</svg>
